<?xml version="1.0" standalone="no"?>
<!DOCTYPE svg PUBLIC "-//W3C//DTD SVG 20010904//EN"
 "http://www.w3.org/TR/2001/REC-SVG-20010904/DTD/svg10.dtd">
<svg version="1.0" xmlns="http://www.w3.org/2000/svg"
 width="300.000000pt" height="114.000000pt" viewBox="0 0 300.000000 114.000000"
 preserveAspectRatio="xMidYMid meet">
<metadata>
Created by potrace 1.10, written by Peter Selinger 2001-2011
</metadata>
<g transform="translate(0.000000,114.000000) scale(0.100000,-0.100000)"
fill="#000000" stroke="none">
<path d="M1801 976 c-35 -13 -71 -49 -71 -72 0 -8 -4 -14 -10 -14 -5 0 -21
-22 -35 -49 -23 -46 -24 -58 -22 -178 2 -120 4 -131 29 -169 35 -54 105 -90
146 -76 l28 10 10 -64 c8 -53 7 -64 -4 -64 -15 0 -76 59 -105 100 -12 19 -15
20 -10 5 3 -11 14 -32 25 -46 l18 -27 -46 -55 c-26 -30 -52 -53 -59 -51 -8 3
-11 22 -9 52 11 164 12 187 2 162 -6 -14 -12 -61 -13 -104 -2 -61 -7 -83 -20
-92 -20 -15 -11 -36 11 -27 9 3 19 1 23 -6 9 -13 41 -4 41 11 0 11 68 91 82
96 4 2 8 -6 8 -17 0 -28 34 -61 63 -61 32 0 58 -30 50 -58 -6 -23 -6 -23 60
-26 32 -2 38 1 34 16 -7 26 15 78 32 78 8 0 27 -12 42 -26 31 -29 88 -35 116
-13 9 8 35 14 57 14 39 0 41 1 38 28 -6 52 -30 94 -57 101 -21 5 -25 12 -25
44 0 57 -18 109 -51 146 -34 39 -101 70 -132 60 -17 -5 -19 -3 -12 12 5 11 10
63 12 118 3 90 1 102 -21 140 -34 57 -74 92 -121 105 -49 13 -61 13 -104 -3z
m101 -42 c15 -4 37 -17 50 -31 l23 -25 -39 22 c-36 19 -63 27 -104 29 -7 1
-10 6 -6 12 3 6 16 8 28 5 11 -4 33 -9 48 -12z m-74 -33 c9 -5 36 -14 59 -20
78 -21 85 -33 86 -150 1 -97 0 -104 -22 -123 -25 -19 -71 -18 -98 4 -7 5 -22
9 -35 7 -13 -1 -31 1 -40 5 -9 4 -26 2 -38 -4 -30 -16 -50 -6 -50 25 0 24 3
26 30 20 40 -9 65 1 79 31 12 28 31 24 31 -6 0 -22 28 -40 61 -40 28 0 59 27
59 51 0 9 6 19 13 22 18 7 -57 37 -93 37 -16 0 -30 -4 -30 -10 0 -5 -11 -10
-25 -10 -14 0 -25 4 -25 10 0 16 -46 23 -70 10 -19 -10 -21 -9 -17 7 3 10 8
32 12 50 4 19 21 45 41 63 38 32 45 35 72 21z m-42 -175 c14 -37 -28 -66 -70
-50 -19 7 -21 50 -3 57 25 11 68 6 73 -7z m138 8 c40 -15 3 -77 -41 -69 -36 6
-57 47 -36 68 8 9 56 9 77 1z m91 -120 c-9 -24 -21 -44 -26 -44 -17 0 -9 55
13 90 18 29 23 32 26 16 2 -10 -4 -38 -13 -62z m-192 -20 c57 -10 44 -44 -17
-44 -29 0 -61 24 -52 38 8 14 16 14 69 6z m-96 -16 c-6 -19 48 -48 87 -48 20
0 40 8 51 20 18 20 51 28 40 10 -9 -14 18 -13 32 1 9 9 10 7 6 -9 -3 -12 -9
-20 -13 -17 -4 3 -11 -2 -14 -11 -4 -10 -2 -13 7 -8 6 4 1 -4 -13 -17 -14 -14
-31 -23 -39 -20 -8 2 -12 0 -8 -6 9 -14 -15 -23 -58 -23 -21 0 -35 6 -39 16
-4 9 -9 14 -13 11 -8 -9 -45 62 -38 73 3 5 1 11 -5 15 -12 7 -4 25 11 25 6 0
9 -6 6 -12z m413 -16 c38 -29 70 -81 70 -116 0 -17 -4 -26 -8 -20 -4 7 -16 13
-27 15 -58 8 -96 -40 -101 -126 -1 -34 -7 -51 -17 -53 -12 -2 -13 5 -6 40 26
129 19 200 -25 242 -13 11 -21 27 -18 35 6 19 99 7 132 -17z m-104 -67 c16
-34 24 -67 22 -87 -3 -28 -5 -30 -12 -13 -17 47 -49 105 -58 105 -5 0 3 -21
18 -46 24 -41 28 -57 27 -123 -2 -99 -21 -155 -54 -155 -13 0 -24 4 -24 9 0 6
-13 30 -27 55 -16 26 -32 75 -39 116 l-11 71 45 43 c26 23 49 50 52 61 11 34
36 20 61 -36z m163 -79 c6 -7 14 -35 18 -61 5 -38 9 -45 17 -34 17 23 41 12
54 -25 17 -47 15 -56 -13 -56 -19 0 -23 4 -19 18 4 10 2 13 -3 7 -19 -25 -73
-55 -96 -55 -31 0 -64 39 -73 84 -6 37 17 104 43 124 22 16 58 15 72 -2z
m-329 -131 c25 -13 41 -35 25 -35 -14 0 -55 25 -59 36 -7 18 -2 17 34 -1z"/>
<path d="M1586 881 c5 -23 2 -32 -14 -40 -31 -17 -44 -14 -37 9 8 24 -10 27
-23 4 -8 -14 -16 -12 -70 15 -76 38 -120 40 -161 5 -33 -27 -41 -54 -16 -54 8
0 15 7 15 15 0 8 11 22 25 31 29 19 59 14 135 -24 l56 -28 -34 -75 c-48 -107
-86 -141 -120 -107 -20 20 -14 45 12 52 59 15 117 116 67 116 -31 0 -67 -36
-106 -105 -20 -36 -48 -73 -62 -82 -25 -16 -26 -16 -45 7 -22 27 -19 43 8 49
52 10 115 92 84 111 -26 16 -80 -21 -107 -75 -16 -30 -31 -45 -47 -45 -8 0 -5
26 10 78 5 16 2 22 -9 22 -20 0 -37 -30 -37 -65 0 -28 -44 -105 -60 -105 -15
0 -12 36 6 78 31 73 33 81 24 87 -5 3 -30 -35 -55 -85 -25 -49 -50 -90 -55
-90 -17 0 -11 42 14 100 22 51 25 83 6 63 -17 -17 -60 -147 -54 -165 7 -23 32
-23 56 -1 15 14 21 15 27 4 14 -22 54 -8 78 28 24 35 73 51 73 24 0 -20 37
-53 59 -53 11 0 33 12 51 26 29 25 32 25 49 10 22 -20 51 -21 76 -2 15 10 23
11 37 2 27 -17 67 10 94 64 26 50 28 60 14 60 -5 0 -21 -22 -35 -49 -13 -27
-30 -53 -36 -56 -27 -17 -25 16 5 94 31 79 34 84 65 86 55 5 89 53 59 83 -20
20 -28 14 -22 -17z m-166 -112 c0 -14 -56 -69 -70 -69 -9 0 -9 5 1 18 43 56
69 76 69 51z m-140 -29 c-12 -22 -58 -56 -66 -48 -8 9 46 68 62 68 12 0 12 -4
4 -20z"/>
<path d="M885 875 c-60 -31 -70 -79 -35 -156 35 -77 24 -129 -31 -148 -71 -24
-129 -4 -129 45 0 46 55 83 101 69 20 -7 26 -39 9 -50 -6 -4 -8 -11 -5 -16 11
-17 25 -9 36 17 7 20 6 32 -6 50 -31 48 -128 19 -155 -46 -40 -98 117 -144
202 -60 35 36 36 73 3 146 -29 64 -30 72 -9 102 45 65 150 39 114 -28 -7 -13
-21 -20 -40 -20 -38 0 -48 -18 -15 -26 50 -12 108 53 85 96 -22 41 -74 51
-125 25z"/>
<path d="M1480 540 l-22 -31 -19 25 c-13 16 -26 22 -39 19 -18 -5 -18 -7 10
-41 23 -28 30 -47 30 -79 0 -36 3 -43 20 -43 17 0 20 7 20 46 0 35 7 57 30 90
26 39 27 44 10 44 -10 0 -28 -14 -40 -30z"/>
<path d="M1270 464 l0 -77 40 6 c64 8 92 47 55 77 -11 9 -12 17 -4 31 15 29 3
39 -47 39 l-44 0 0 -76z m60 41 c-13 -16 -40 -20 -40 -7 0 14 12 22 33 22 16
0 17 -3 7 -15z m8 -62 c-2 -10 -13 -19 -26 -21 -17 -3 -22 2 -22 17 0 16 6 21
26 21 19 0 25 -5 22 -17z"/>
<path d="M1184 522 c-16 -2 -25 -14 -33 -46 -6 -24 -13 -51 -17 -60 -4 -11 -1
-16 10 -16 9 0 16 7 16 15 0 9 9 15 25 15 15 0 25 -6 25 -14 0 -14 24 -29 33
-20 6 6 -22 117 -31 125 -4 3 -17 3 -28 1z"/>
<path d="M1048 503 c-14 -3 -18 -15 -18 -54 l0 -49 34 0 c39 0 62 21 51 47 -5
10 -7 28 -6 41 2 22 -16 27 -61 15z"/>
<path d="M1049 366 c-50 -25 -39 -98 16 -104 32 -4 58 20 48 44 -6 16 -43 19
-43 4 0 -5 5 -10 10 -10 6 0 10 -4 10 -10 0 -15 -26 -12 -40 5 -20 24 -3 55
31 55 16 0 29 4 29 9 0 15 -37 19 -61 7z"/>
<path d="M1142 313 c-13 -61 -8 -79 12 -50 16 21 46 23 46 2 0 -8 7 -15 15
-15 19 0 19 0 -1 66 -13 44 -19 54 -38 54 -19 0 -24 -8 -34 -57z"/>
<path d="M1257 363 c-4 -3 -7 -30 -7 -60 0 -47 2 -53 21 -53 19 0 21 4 16 30
-4 17 -3 30 1 30 4 0 16 -13 25 -30 10 -17 27 -30 38 -30 17 0 19 7 19 61 0
52 -2 60 -17 57 -14 -3 -17 -12 -16 -38 l3 -35 -33 38 c-33 38 -39 42 -50 30z"/>
<path d="M1422 354 c-26 -18 -30 -65 -6 -88 18 -19 75 -21 92 -4 7 7 12 20 12
30 0 13 -8 18 -30 18 -32 0 -41 -16 -12 -23 16 -4 16 -4 -1 -12 -21 -9 -47 10
-47 34 0 27 20 40 51 34 31 -6 41 10 13 21 -26 10 -48 7 -72 -10z"/>
</g>
</svg>
