<?xml version="1.0" standalone="no"?>
<!DOCTYPE svg PUBLIC "-//W3C//DTD SVG 20010904//EN"
 "http://www.w3.org/TR/2001/REC-SVG-20010904/DTD/svg10.dtd">
<svg version="1.0" xmlns="http://www.w3.org/2000/svg"
 width="364.000000pt" height="138.000000pt" viewBox="0 0 364.000000 138.000000"
 preserveAspectRatio="xMidYMid meet">

<g transform="translate(0.000000,138.000000) scale(0.100000,-0.100000)"
fill="#000000" stroke="none">
<path d="M2245 1195 c-5 -2 -27 -6 -47 -10 -41 -6 -98 -56 -98 -85 0 -10 -6
-20 -14 -23 -22 -9 -65 -104 -66 -145 -1 -20 -2 -64 -2 -97 -3 -122 2 -169 22
-210 11 -23 20 -47 20 -54 0 -7 4 -10 9 -7 11 7 57 -46 66 -76 4 -13 18 -37
31 -54 13 -17 21 -34 19 -38 -3 -3 -2 -4 2 -1 9 7 32 -15 29 -28 -1 -7 -1 -9
1 -5 6 9 83 -26 95 -43 7 -10 8 -8 2 6 -11 32 -34 138 -34 163 0 15 19 42 54
76 30 29 58 65 62 80 8 33 28 33 61 -1 23 -25 24 -25 14 -5 -7 13 -19 26 -27
29 -18 7 -18 18 1 37 9 8 16 19 16 23 0 4 4 25 10 45 5 21 10 84 11 140 0 94
-2 107 -27 150 -34 60 -96 114 -141 123 -20 3 -41 8 -47 10 -7 2 -16 2 -22 0z
m-31 -110 c3 -9 18 -15 39 -15 42 0 97 -22 119 -47 9 -11 17 -42 20 -79 4 -67
0 -70 -62 -37 -34 18 -86 17 -94 -2 -8 -22 -42 -18 -65 6 -17 18 -27 21 -60
15 l-41 -6 6 32 c11 70 15 79 45 106 48 42 83 53 93 27z m-55 -195 c13 -6 17
-17 13 -35 -6 -33 -35 -48 -78 -40 -30 5 -34 10 -34 36 0 21 6 32 23 39 30 12
55 12 76 0z m194 -7 c13 -8 -2 -56 -20 -70 -26 -20 -62 -15 -88 12 -14 13 -25
20 -25 15 0 -6 9 -19 20 -30 38 -38 111 -17 124 35 6 25 32 31 30 7 -1 -7 -2
-32 -2 -57 -2 -38 -6 -47 -31 -60 -31 -15 -74 -12 -121 9 -23 11 -102 13 -160
5 -22 -4 -25 0 -28 32 l-3 37 41 -11 c49 -14 69 -4 89 41 14 31 31 43 31 22 0
-5 5 -10 10 -10 6 0 10 6 10 14 0 8 8 17 18 19 18 5 91 -2 105 -10z m-318
-108 c-3 -26 -8 -45 -11 -43 -2 3 -1 26 2 52 4 25 9 44 12 42 2 -3 1 -26 -3
-51z m432 26 c-9 -42 -40 -104 -55 -109 -19 -6 -4 76 20 111 26 36 42 35 35
-2z m-264 -88 c-13 -2 -33 -2 -45 0 -13 2 -3 4 22 4 25 0 35 -2 23 -4z m22
-23 c25 -6 20 -8 -27 -9 -31 0 -60 4 -63 9 -7 12 45 12 90 0z m53 -255 c6 -38
9 -72 6 -75 -12 -12 -82 41 -111 85 -18 26 -33 50 -33 54 0 3 29 6 64 6 l63 0
11 -70z"/>
<path d="M2483 723 c9 -2 23 -2 30 0 6 3 -1 5 -18 5 -16 0 -22 -2 -12 -5z"/>
<path d="M2538 713 c7 -3 16 -2 19 1 4 3 -2 6 -13 5 -11 0 -14 -3 -6 -6z"/>
<path d="M2607 679 c12 -12 25 -20 28 -17 3 3 -7 13 -22 23 l-28 17 22 -23z"/>
<path d="M1797 658 l-25 -33 -24 23 c-24 22 -49 28 -61 16 -3 -4 9 -26 28 -49
30 -36 35 -50 35 -94 0 -44 3 -51 20 -51 17 0 20 7 20 53 0 43 6 62 35 106 19
29 35 55 35 57 0 2 -8 4 -19 4 -10 0 -30 -15 -44 -32z"/>
<path d="M1540 565 l0 -85 43 0 c23 0 53 7 65 16 25 17 29 56 7 74 -11 9 -12
17 -5 30 22 41 13 50 -50 50 l-60 0 0 -85z m80 55 c0 -11 -40 -34 -47 -26 -3
3 -3 12 0 21 7 16 47 21 47 5z m-2 -72 c15 -15 -3 -38 -29 -38 -14 0 -19 7
-19 25 0 27 26 35 48 13z"/>
<path d="M2640 646 c0 -2 8 -10 18 -17 15 -13 16 -12 3 4 -13 16 -21 21 -21
13z"/>
<path d="M1439 632 c-23 -3 -28 -11 -44 -70 -21 -75 -21 -75 -5 -80 6 -2 14 5
17 17 7 28 53 29 60 1 5 -17 43 -30 43 -14 0 18 -33 144 -38 147 -4 1 -19 1
-33 -1z m14 -84 c-2 -5 -8 -8 -14 -8 -11 0 -12 33 -2 44 8 8 23 -25 16 -36z"/>
<path d="M1250 551 c0 -56 1 -59 27 -64 53 -10 94 22 78 61 -5 9 -7 27 -6 40
2 20 -2 22 -48 22 l-51 0 0 -59z m65 29 c-3 -5 -13 -10 -21 -10 -8 0 -14 5
-14 10 0 6 9 10 21 10 11 0 17 -4 14 -10z m5 -55 c0 -8 -9 -15 -20 -15 -11 0
-20 7 -20 15 0 8 9 15 20 15 11 0 20 -7 20 -15z"/>
<path d="M2419 583 c50 -75 67 -197 41 -292 -6 -23 -9 -45 -7 -48 3 -2 8 9 12
26 4 17 10 31 14 31 4 0 6 13 3 30 -2 16 3 50 12 76 9 26 15 70 15 98 l-2 51
-7 -58 c-8 -59 -20 -89 -20 -47 0 42 -23 99 -52 132 l-30 33 21 -32z"/>
<path d="M2481 605 c1 -19 18 -51 18 -35 0 8 -4 22 -9 30 -5 8 -9 11 -9 5z"/>
<path d="M2682 560 c0 -14 2 -19 5 -12 2 6 2 18 0 25 -3 6 -5 1 -5 -13z"/>
<path d="M2572 514 c-26 -18 -52 -65 -52 -91 1 -10 7 0 15 22 8 22 27 50 42
62 32 26 29 31 -5 7z"/>
<path d="M2658 515 c12 -9 26 -30 30 -48 9 -30 9 -29 10 17 0 32 -3 45 -8 35
-7 -11 -12 -11 -22 -1 -6 6 -17 12 -22 12 -6 0 -1 -7 12 -15z"/>
<path d="M1263 442 c-21 -13 -33 -60 -23 -87 23 -59 110 -56 110 5 0 23 -4 30
-19 30 -11 0 -23 -4 -26 -10 -3 -5 -1 -10 4 -10 6 0 11 -7 11 -15 0 -24 -40
-18 -49 8 -13 34 2 62 35 63 46 2 50 4 34 14 -18 12 -60 13 -77 2z"/>
<path d="M1386 386 c-9 -36 -16 -68 -16 -71 0 -12 28 -4 34 10 3 8 14 15 25
15 10 0 21 -7 25 -15 3 -8 13 -15 21 -15 13 0 15 6 10 32 -17 77 -31 103 -57
106 -23 3 -27 -2 -42 -62z m54 -12 c0 -8 -4 -14 -10 -14 -5 0 -10 9 -10 21 0
11 5 17 10 14 6 -3 10 -13 10 -21z"/>
<path d="M2033 410 c0 -25 2 -35 4 -22 2 12 2 32 0 45 -2 12 -4 2 -4 -23z"/>
<path d="M1520 370 c0 -63 2 -70 20 -70 16 0 20 7 20 38 l1 37 32 -38 c18 -20
40 -37 50 -37 14 0 17 10 17 70 0 63 -2 70 -20 70 -16 0 -20 -7 -20 -37 l-1
-38 -32 38 c-18 20 -40 37 -49 37 -15 0 -18 -10 -18 -70z"/>
<path d="M1717 422 c-24 -26 -22 -77 5 -102 41 -38 118 -18 118 30 0 20 -49
35 -64 19 -6 -6 -4 -9 7 -9 9 0 17 -7 17 -15 0 -24 -47 -19 -61 6 -8 16 -8 28
0 46 11 23 16 25 52 19 31 -5 40 -3 37 6 -3 7 -24 14 -49 16 -34 2 -49 -2 -62
-16z"/>
<path d="M2702 405 c0 -16 2 -22 5 -12 2 9 2 23 0 30 -3 6 -5 -1 -5 -18z"/>
<path d="M2731 414 c6 -8 15 -11 20 -8 5 3 12 -3 15 -13 3 -10 10 -27 14 -38
5 -11 10 -32 13 -47 3 -22 0 -28 -14 -28 -31 0 -48 11 -43 28 5 13 2 12 -13
-3 -56 -63 -117 -73 -164 -26 -16 16 -29 40 -30 53 0 21 -1 22 -8 3 -7 -16 0
-28 30 -57 45 -46 87 -50 139 -15 28 20 39 22 60 14 44 -17 59 -5 50 40 -14
71 -30 101 -56 106 -19 3 -22 2 -13 -9z"/>
<path d="M2512 380 c0 -14 2 -19 5 -12 2 6 2 18 0 25 -3 6 -5 1 -5 -13z"/>
<path d="M2125 326 c-16 -13 -28 -26 -25 -28 3 -2 18 9 35 24 36 34 31 37 -10
4z"/>
<path d="M2237 319 c12 -12 24 -21 27 -18 2 2 -8 13 -22 23 l-27 19 22 -24z"/>
<path d="M2032 314 c-7 -8 -8 -14 -3 -14 10 0 25 19 20 25 -2 1 -10 -3 -17
-11z"/>
<path d="M2308 293 c12 -2 22 -7 22 -11 0 -4 10 -18 21 -32 l21 -25 -20 35
c-14 23 -29 35 -44 36 -23 1 -23 1 0 -3z"/>
<path d="M1995 280 c-3 -6 1 -7 9 -4 18 7 21 14 7 14 -6 0 -13 -4 -16 -10z"/>
<path d="M2044 265 c19 -20 30 -19 47 3 13 16 13 16 -5 2 -15 -11 -20 -12 -23
-2 -3 6 -11 12 -20 12 -13 0 -13 -2 1 -15z"/>
<path d="M2340 223 c0 -4 5 -15 10 -23 8 -13 10 -13 10 2 0 9 -4 20 -10 23 -5
3 -10 3 -10 -2z"/>
<path d="M2433 215 c-10 -10 -9 -15 4 -19 21 -8 27 -1 16 17 -6 12 -10 13 -20
2z"/>
<path d="M2389 193 c-13 -16 -12 -17 4 -4 16 13 21 21 13 21 -2 0 -10 -8 -17
-17z"/>
</g>
</svg>
