<?xml version="1.0" encoding="UTF-8" standalone="no"?>
<!-- Created using Krita: https://krita.org -->

<svg
   width="73.728pt"
   height="73.728pt"
   viewBox="0 0 73.728 73.728"
   version="1.1"
   id="svg8"
   sodipodi:docname="dw.svg"
   inkscape:version="1.2.2 (b0a8486541, 2022-12-01)"
   xmlns:inkscape="http://www.inkscape.org/namespaces/inkscape"
   xmlns:sodipodi="http://sodipodi.sourceforge.net/DTD/sodipodi-0.dtd"
   xmlns="http://www.w3.org/2000/svg"
   xmlns:svg="http://www.w3.org/2000/svg">
  <sodipodi:namedview
     id="namedview10"
     pagecolor="#ffffff"
     bordercolor="#000000"
     borderopacity="0.25"
     inkscape:showpageshadow="2"
     inkscape:pageopacity="0.0"
     inkscape:pagecheckerboard="0"
     inkscape:deskcolor="#d1d1d1"
     inkscape:document-units="pt"
     showgrid="false"
     inkscape:zoom="8.9314782"
     inkscape:cx="49.151998"
     inkscape:cy="50.047706"
     inkscape:window-width="1792"
     inkscape:window-height="1056"
     inkscape:window-x="0"
     inkscape:window-y="0"
     inkscape:window-maximized="1"
     inkscape:current-layer="svg8" />
  <defs
     id="defs2" />
  <rect
     id="shape0"
     fill="#272727"
     fill-rule="evenodd"
     stroke="#272727"
     stroke-width="5.67139"
     stroke-linecap="square"
     stroke-linejoin="bevel"
     width="68.05661"
     height="68.05661"
     rx="9.0553493"
     ry="9.0931597"
     x="2.8356988"
     y="2.8356988" />
  <g
     id="group0"
     transform="matrix(1.0055377,0,0,1.0031493,6.7215012,22.708501)"
     fill="none">
    <path
       id="shape1"
       transform="matrix(2.3736879,0,0,2.3793497,20.462638,0)"
       fill="#cccccc"
       fill-rule="evenodd"
       stroke-opacity="0"
       stroke="#000000"
       stroke-width="0"
       stroke-linecap="square"
       stroke-linejoin="bevel"
       d="M 3.04729,0.0895556 V 0 H 1.52379 0 V 0.0895556 C 0.08022,0.136444 0.15555,0.259333 0.29622,0.624444 1.99889,1.72689 2.96619,3.55 2.96619,5.70689 v 0.01533 c 0,0.70422 -0.0966,1.36845 -0.2826,1.98911 l 1.3795,4.15427 h 0.3554 C 7.65199,5.88067 8.07509,4.97 8.37979,4.194 h 0.0169 c 0.3046,0.76111 0.7111,1.65667 3.87661,7.6716 h 0.3556 l 2.37,-7.23871 C 16.2516,0.790889 16.438,0.223778 16.6409,0.0895556 V 0 H 15.236 13.8138 V 0.0895556 C 14.0342,0.194 13.7971,0.776222 12.8831,3.77622 12.5107,4.97 12.3073,5.71644 12.0704,6.61178 H 12.0365 C 11.6978,5.85067 11.2916,5.01511 10.6653,3.71622 9.80199,2.23867 9.14179,1.04467 8.63379,0.119111 H 8.29509 C 7.78729,1.05956 7.05959,2.29822 6.31469,3.67156 c -0.7109,1.418 -1.0836,2.194 -1.422,3 H 4.84179 C 4.60489,5.79089 4.38469,5.04489 3.96109,3.68667 3.04729,0.790889 2.82729,0.208667 3.04729,0.0895556 Z"
       sodipodi:nodetypes="cccccccccccccccccccccccccccccccc" />
    <path
       id="shape2"
       transform="scale(2.3736879,2.3793497)"
       fill="#cccccc"
       fill-rule="evenodd"
       stroke-opacity="0"
       stroke="#000000"
       stroke-width="0"
       stroke-linecap="square"
       stroke-linejoin="bevel"
       d="m 2.78356,2.06289 c 0.30755,-0.03 0.68311,-0.06022 1.076,-0.06022 1.14422,0 2.13466,0.27089 2.818,0.72289 0.99066,0.67755 1.55422,1.792 1.55422,3.05644 V 5.79733 C 8.23178,7.288 7.566,8.35711 6.59244,9.04978 5.858,9.57689 4.85,9.83289 3.82511,9.83289 c -0.30689,0 -0.68289,-0.01489 -0.956,-0.04533 -0.05133,0 -0.08555,-0.03 -0.08555,-0.09045 z M 0,11.6998 v 0.0755 c 0.392667,0.03 0.905111,0.0451 1.36622,0.0603 0.54622,0.0151 1.31467,0.03 2.03222,0.03 1.89556,0 3.53556,-0.3614 4.76512,-1.1592 C 9.88867,9.60689 10.9131,7.92022 10.9131,5.72222 V 5.70689 C 10.9131,3.87 10.0936,1.98756 8.14644,0.948667 7.01911,0.331111 5.55,0 3.63778,0 2.95467,0 2.32244,0.0148889 1.60511,0.0451111 0.905111,0.0602222 0.375556,0.105333 0.0171111,0.120444 V 0.271111 C 0.238889,0.376444 0.238889,0.888444 0.238889,4.96911 v 1.65645 c 0,4.38174 0,4.93884 -0.238889,5.07424 z"
       sodipodi:nodetypes="ccccccccccccccccccccccccc" />
  </g>
</svg>
