<?xml version="1.0" encoding="UTF-8" standalone="no"?>
<!-- Created using Krita: https://krita.org -->

<svg
   width="73.728pt"
   height="73.728pt"
   viewBox="0 0 73.728 73.728"
   version="1.1"
   id="svg8"
   sodipodi:docname="rumble.svg"
   inkscape:version="1.2.2 (b0a8486541, 2022-12-01)"
   xml:space="preserve"
   xmlns:inkscape="http://www.inkscape.org/namespaces/inkscape"
   xmlns:sodipodi="http://sodipodi.sourceforge.net/DTD/sodipodi-0.dtd"
   xmlns="http://www.w3.org/2000/svg"
   xmlns:svg="http://www.w3.org/2000/svg"><sodipodi:namedview
     id="namedview10"
     pagecolor="#ffffff"
     bordercolor="#000000"
     borderopacity="0.25"
     inkscape:showpageshadow="2"
     inkscape:pageopacity="0.0"
     inkscape:pagecheckerboard="0"
     inkscape:deskcolor="#d1d1d1"
     inkscape:document-units="pt"
     showgrid="false"
     inkscape:zoom="8.9314782"
     inkscape:cx="26.81527"
     inkscape:cy="45.457201"
     inkscape:window-width="1792"
     inkscape:window-height="1056"
     inkscape:window-x="0"
     inkscape:window-y="0"
     inkscape:window-maximized="1"
     inkscape:current-layer="svg8" /><defs
     id="defs2" /><rect
     id="shape0"
     fill="#272727"
     fill-rule="evenodd"
     stroke="#272727"
     stroke-width="5.67139"
     stroke-linecap="square"
     stroke-linejoin="bevel"
     width="68.05661"
     height="68.05661"
     rx="9.0553493"
     ry="9.0931597"
     x="2.8356988"
     y="2.8356988"
     style="fill:#85c742;fill-opacity:1;stroke:#85c742;stroke-opacity:1" /><path
     d="m 41.806002,39.980526 c 1.623118,-1.316773 1.871295,-3.699723 0.554726,-5.322842 a 3.7844552,3.7844611 0 0 0 -0.554726,-0.554727 42.696793,42.69686 0 0 0 -8.679369,-5.587524 c -2.145638,-1.026526 -4.540863,0.402559 -4.883239,2.846094 a 47.346146,47.34622 0 0 0 -0.28179,11.074612 c 0.233484,2.47574 2.600529,3.953133 4.774346,3.003093 a 39.508125,39.508187 0 0 0 9.070052,-5.442604 z m 13.95309,-10.869507 c 4.093016,4.484512 4.105295,11.346137 0.02818,15.845342 A 52.631945,52.632027 0 0 1 29.410814,60.712737 C 24.006866,62.063931 18.507912,58.873041 16.999525,53.51075 13.932027,43.043802 14.382894,31.208354 17.3417,20.693099 c 1.553876,-5.523115 6.747086,-8.989354 12.097294,-7.713039 9.9114,2.363024 19.210709,8.445697 26.320098,16.126732 v 0.004 z"
     id="path189"
     style="stroke-width:2.0128;fill:#ffffff" /></svg>
