<?xml version="1.0" encoding="UTF-8" standalone="no"?>
<!-- Created using Krita: https://krita.org -->

<svg
   width="73.728pt"
   height="73.728pt"
   viewBox="0 0 73.728 73.728"
   version="1.1"
   id="svg8"
   sodipodi:docname="youtube.svg"
   inkscape:version="1.2.2 (b0a8486541, 2022-12-01)"
   xml:space="preserve"
   xmlns:inkscape="http://www.inkscape.org/namespaces/inkscape"
   xmlns:sodipodi="http://sodipodi.sourceforge.net/DTD/sodipodi-0.dtd"
   xmlns="http://www.w3.org/2000/svg"
   xmlns:svg="http://www.w3.org/2000/svg"><sodipodi:namedview
     id="namedview10"
     pagecolor="#ffffff"
     bordercolor="#000000"
     borderopacity="0.25"
     inkscape:showpageshadow="2"
     inkscape:pageopacity="0.0"
     inkscape:pagecheckerboard="0"
     inkscape:deskcolor="#d1d1d1"
     inkscape:document-units="pt"
     showgrid="false"
     inkscape:zoom="8.9314782"
     inkscape:cx="38.459479"
     inkscape:cy="45.457201"
     inkscape:window-width="1792"
     inkscape:window-height="1056"
     inkscape:window-x="0"
     inkscape:window-y="0"
     inkscape:window-maximized="1"
     inkscape:current-layer="svg8" /><defs
     id="defs2" /><rect
     id="shape0"
     fill="#272727"
     fill-rule="evenodd"
     stroke="#272727"
     stroke-width="5.67139"
     stroke-linecap="square"
     stroke-linejoin="bevel"
     width="68.05661"
     height="68.05661"
     rx="9.0553493"
     ry="9.0931597"
     x="2.8356988"
     y="2.8356988"
     style="fill:#ff0000;fill-opacity:1;stroke:#ff0000;stroke-opacity:1" /><path
     d="M 62.744292,23.784921 A 6.7872568,6.7873376 0 0 0 57.968907,18.977975 C 53.758378,17.8415 36.869,17.8415 36.869,17.8415 c 0,0 -16.889377,0 -21.102156,1.136475 a 6.7895072,6.789588 0 0 0 -4.773135,4.806946 C 9.864,28.024757 9.864,36.868999 9.864,36.868999 c 0,0 0,8.844244 1.129709,13.084079 a 6.7872568,6.7873376 0 0 0 4.775385,4.806947 C 19.979623,55.8965 36.869,55.8965 36.869,55.8965 c 0,0 16.889378,0 21.102158,-1.136475 a 6.7850064,6.7850872 0 0 0 4.775385,-4.806947 C 63.874,45.713243 63.874,36.868999 63.874,36.868999 c 0,0 0,-8.844242 -1.129708,-13.084078 z M 31.344227,44.898583 V 28.839417 l 14.116864,8.029582 z"
     id="path4185"
     style="stroke-width:2.25044;fill:#ffffff" /></svg>
