<?xml version="1.0" encoding="UTF-8" standalone="no"?>
<!-- Created using Krita: https://krita.org -->

<svg
   width="73.728pt"
   height="73.728pt"
   viewBox="0 0 73.728 73.728"
   version="1.1"
   id="svg8"
   sodipodi:docname="apple.svg"
   inkscape:version="1.2.2 (b0a8486541, 2022-12-01)"
   xml:space="preserve"
   xmlns:inkscape="http://www.inkscape.org/namespaces/inkscape"
   xmlns:sodipodi="http://sodipodi.sourceforge.net/DTD/sodipodi-0.dtd"
   xmlns="http://www.w3.org/2000/svg"
   xmlns:svg="http://www.w3.org/2000/svg"><sodipodi:namedview
     id="namedview10"
     pagecolor="#ffffff"
     bordercolor="#000000"
     borderopacity="0.25"
     inkscape:showpageshadow="2"
     inkscape:pageopacity="0.0"
     inkscape:pagecheckerboard="0"
     inkscape:deskcolor="#d1d1d1"
     inkscape:document-units="pt"
     showgrid="false"
     inkscape:zoom="2.160826"
     inkscape:cx="40.956561"
     inkscape:cy="150.40545"
     inkscape:window-width="1792"
     inkscape:window-height="1056"
     inkscape:window-x="0"
     inkscape:window-y="0"
     inkscape:window-maximized="1"
     inkscape:current-layer="svg8"
     showguides="true"><sodipodi:guide
       position="15.870834,47.86442"
       orientation="1,0"
       id="guide32507"
       inkscape:locked="false" /><sodipodi:guide
       position="57.276891,39.491792"
       orientation="1,0"
       id="guide32509"
       inkscape:locked="false" /></sodipodi:namedview><defs
     id="defs2" /><rect
     id="shape0"
     fill="#272727"
     fill-rule="evenodd"
     stroke="#272727"
     stroke-width="5.67139"
     stroke-linecap="square"
     stroke-linejoin="bevel"
     width="68.05661"
     height="68.05661"
     rx="0"
     ry="0"
     x="2.8356988"
     y="2.8356988"
     style="fill:#9933cc;fill-opacity:1;stroke:#9933cc;stroke-width:5.671;stroke-linejoin:miter;stroke-dasharray:none;stroke-opacity:1;stroke-linecap:square" /><rect
     style="fill:#ffffff;fill-opacity:1;stroke:#ffffff;stroke-width:7.88599;stroke-linecap:square;stroke-dasharray:none;stroke-opacity:1;paint-order:markers fill stroke"
     id="rect12900"
     width="40.485165"
     height="43.209686"
     x="16.675867"
     y="15.244724" /><path
     d="M 20.414092,7.928213 A 13.15044,13.15044 0 0 0 7.2340335,21.108268 V 53.984367 A 13.15044,13.15044 0 0 0 20.414092,67.164425 H 53.29019 A 13.15044,13.15044 0 0 0 66.470249,53.984367 V 21.108268 A 13.15044,13.15044 0 0 0 53.29019,7.928213 Z m 16.104845,6.338273 c 5.76566,0 10.978446,2.226292 14.947272,6.38517 3.021046,3.139519 4.719151,6.464152 5.587949,10.840226 0.296181,1.456225 0.296181,5.429986 0.01745,7.068856 a 20.994303,20.994303 0 0 1 -7.996885,13.071458 c -1.50065,1.13536 -5.173295,3.112369 -5.765659,3.112369 -0.217198,0 -0.236945,-0.224604 -0.138216,-1.135362 0.177708,-1.461159 0.355417,-1.764745 1.184723,-2.112758 1.322943,-0.552873 3.57392,-2.157186 4.956097,-3.541831 a 18.866734,18.866734 0 0 0 4.956096,-8.72747 C 54.781136,37.193369 54.7219,32.671671 54.14929,30.578656 52.352448,23.924457 46.922461,18.751159 40.26826,17.368982 c -1.93505,-0.394908 -5.449731,-0.394908 -7.404528,0 -6.733182,1.382177 -12.301386,6.812165 -13.999491,13.644074 -0.454144,1.856068 -0.454144,6.377767 0,8.233833 1.125489,4.521699 4.047808,8.668233 7.878416,11.13641 0.750325,0.493635 1.658614,1.007013 2.033778,1.164978 0.829306,0.355418 1.007015,0.651599 1.164978,2.112759 0.09873,0.888543 0.07403,1.145232 -0.138216,1.145232 -0.138219,0 -1.145234,-0.434397 -2.211487,-0.947779 l -0.09872,-0.07403 C 21.391658,50.783143 17.482068,45.703637 16.060397,38.945772 c -0.355415,-1.742532 -0.414653,-5.903875 -0.07403,-7.503253 0.888544,-4.294625 2.586648,-7.651344 5.410241,-10.623028 4.067553,-4.28722 9.300086,-6.555474 15.124979,-6.555474 z m 0.330735,6.935573 c 1.009484,0.0099 1.981947,0.09873 2.729803,0.261626 6.871401,1.530269 11.748516,8.411542 10.800736,15.238516 -0.375163,2.749548 -1.322942,5.010395 -3.0013,7.108345 -0.82931,1.061316 -2.84334,2.838403 -3.198756,2.838403 -0.05678,0 -0.118478,-0.671343 -0.118478,-1.488311 v -1.493244 l 1.026761,-1.224217 c 3.870099,-4.635232 3.593661,-11.111726 -0.631854,-15.361925 -1.638868,-1.653676 -3.534427,-2.626139 -5.982857,-3.075345 -1.579632,-0.291246 -1.915305,-0.291246 -3.573919,-0.01973 -2.517539,0.412184 -4.467397,1.387114 -6.200056,3.100027 -4.245262,4.205772 -4.521697,10.716819 -0.651601,15.356989 l 1.019357,1.224215 v 1.500652 c 0,0.829306 -0.06664,1.500649 -0.148089,1.500649 -0.07403,0 -0.651599,-0.394907 -1.263706,-0.888543 l -0.08392,-0.02729 c -2.05352,-1.638868 -3.870099,-4.546379 -4.620423,-7.397123 -0.454145,-1.722785 -0.454145,-4.995587 0.01973,-6.713437 1.243961,-4.635234 4.659916,-8.231366 9.398812,-9.919597 1.011952,-0.357886 2.796442,-0.542999 4.47727,-0.520786 z m -0.320861,7.379844 c 0.765134,0 1.530268,0.148091 2.083139,0.439336 1.204471,0.624446 2.191741,1.83879 2.566905,3.107432 1.145232,3.89478 -2.981558,7.3058 -6.713441,5.563269 h -0.03702 c -1.757342,-0.816966 -2.70512,-2.359575 -2.724867,-4.368671 0,-1.809171 1.007016,-3.383869 2.74461,-4.306966 0.552872,-0.288776 1.318007,-0.4344 2.083141,-0.4344 z m -0.027,11.669535 c 2.438557,-0.0099 4.210707,0.86139 4.862306,2.39413 0.488698,1.145233 0.306052,4.768516 -0.538062,10.618091 -0.572617,4.087299 -0.888544,5.118996 -1.67836,5.815021 -1.085998,0.96259 -2.626141,1.229152 -4.0873,0.710836 h -0.0071 C 33.28599,59.155194 32.90589,58.296269 32.180247,53.263659 31.338601,47.414084 31.153486,43.790801 31.642185,42.645568 c 0.646662,-1.520397 2.404003,-2.384257 4.862306,-2.39413 z"
     id="path9572"
     style="fill:#9933cc;fill-opacity:1;stroke-width:2.46818" /></svg>
