<?xml version="1.0" encoding="UTF-8" standalone="no"?>
<!-- Created using Krita: https://krita.org -->

<svg
   width="73.728pt"
   height="73.728pt"
   viewBox="0 0 73.728 73.728"
   version="1.1"
   id="svg8"
   sodipodi:docname="rumble.svg"
   inkscape:version="1.2.2 (b0a8486541, 2022-12-01)"
   xml:space="preserve"
   xmlns:inkscape="http://www.inkscape.org/namespaces/inkscape"
   xmlns:sodipodi="http://sodipodi.sourceforge.net/DTD/sodipodi-0.dtd"
   xmlns="http://www.w3.org/2000/svg"
   xmlns:svg="http://www.w3.org/2000/svg"><sodipodi:namedview
     id="namedview10"
     pagecolor="#ffffff"
     bordercolor="#000000"
     borderopacity="0.25"
     inkscape:showpageshadow="2"
     inkscape:pageopacity="0.0"
     inkscape:pagecheckerboard="0"
     inkscape:deskcolor="#d1d1d1"
     inkscape:document-units="pt"
     showgrid="false"
     inkscape:zoom="2.2702533"
     inkscape:cx="-138.09032"
     inkscape:cy="40.083633"
     inkscape:window-width="1792"
     inkscape:window-height="1056"
     inkscape:window-x="0"
     inkscape:window-y="0"
     inkscape:window-maximized="1"
     inkscape:current-layer="svg8" /><defs
     id="defs2" /><rect
     id="shape0"
     fill="#272727"
     fill-rule="evenodd"
     stroke="#272727"
     stroke-width="5.67139"
     stroke-linecap="square"
     stroke-linejoin="bevel"
     width="68.05661"
     height="68.05661"
     rx="0"
     ry="0"
     x="2.8356988"
     y="2.8356988"
     style="fill:#a238ff;fill-opacity:1;stroke:#a238ff;stroke-width:5.671;stroke-linejoin:miter;stroke-dasharray:none;stroke-opacity:1;stroke-linecap:square" /><g
     style="fill:#ffffff;fill-opacity:1"
     id="g27895"
     transform="matrix(0.16005452,0,0,0.16005356,14.383737,14.316215)"><path
       fill-rule="evenodd"
       clip-rule="evenodd"
       d="m 232.97,42.8737 c 2.569,-14.89 6.339,-24.2533 10.515,-24.2711 h 0.008 c 7.787,0.0268 14.099,32.4986 14.099,72.5898 0,40.0916 -6.321,72.5896 -14.116,72.5896 -3.196,0 -6.145,-5.518 -8.519,-14.765 -3.752,33.85 -11.538,57.119 -20.552,57.119 -6.974,0 -13.233,-13.978 -17.435,-36.022 -2.869,41.924 -10.09,71.669 -18.53,71.669 -5.297,0 -10.126,-11.787 -13.701,-30.979 -4.299,39.617 -14.231,67.376 -25.813,67.376 -11.582,0 -21.532,-27.75 -25.813,-67.376 -3.549,19.192 -8.378,30.979 -13.7012,30.979 -8.4396,0 -15.6432,-29.745 -18.53,-71.669 -4.2021,22.044 -10.4435,36.022 -17.4353,36.022 -9.0045,0 -16.7996,-23.261 -20.5515,-57.119 -2.3571,9.274 -5.3233,14.765 -8.519,14.765 -7.7951,0 -14.116,-32.498 -14.116,-72.5896 0,-40.0912 6.3209,-72.5898 14.116,-72.5898 4.1844,0 7.9275,9.39 10.5229,24.2711 4.158,-25.6752 10.9114,-42.362714 18.5476,-42.362714 9.0664,0 16.9233,23.600414 20.6399,57.869814 3.6371,-24.9419 9.1546,-40.8425 15.3342,-40.8425 8.6604,0 16.0224,31.2735 18.7504,74.8972 5.129,-22.3663 12.554,-36.3978 20.773,-36.3978 8.218,0 15.643,14.0404 20.763,36.3978 2.737,-43.6237 10.09,-74.8972 18.751,-74.8972 6.17,0 11.679,15.9006 15.334,40.8425 3.708,-34.2694 11.565,-57.869814 20.631,-57.869814 7.61,0 14.389,16.696514 18.547,42.362714 z M 0.0891113,84.0528 c 0,-17.9217 3.5841687,-32.4539 8.0069887,-32.4539 4.4228,0 8.007,14.5322 8.007,32.4539 0,17.9212 -3.5842,32.4542 -8.007,32.4542 -4.42282,0 -8.0069887,-14.533 -8.0069887,-32.4542 z m 261.6538887,0 c 0,-17.9217 3.584,-32.4539 8.007,-32.4539 4.422,0 8.007,14.5322 8.007,32.4539 0,17.9212 -3.585,32.4542 -8.007,32.4542 -4.423,0 -8.007,-14.533 -8.007,-32.4542 z"
       fill="#a238ff"
       id="path27885"
       style="fill:#ffffff;fill-opacity:1" /></g></svg>
