<?xml version="1.0" encoding="UTF-8" standalone="no"?>
<!-- Created using Krita: https://krita.org -->

<svg
   width="73.728pt"
   height="73.728pt"
   viewBox="0 0 73.728 73.728"
   version="1.1"
   id="svg8"
   sodipodi:docname="rumble.svg"
   inkscape:version="1.2.2 (b0a8486541, 2022-12-01)"
   xml:space="preserve"
   xmlns:inkscape="http://www.inkscape.org/namespaces/inkscape"
   xmlns:sodipodi="http://sodipodi.sourceforge.net/DTD/sodipodi-0.dtd"
   xmlns="http://www.w3.org/2000/svg"
   xmlns:svg="http://www.w3.org/2000/svg"><sodipodi:namedview
     id="namedview10"
     pagecolor="#ffffff"
     bordercolor="#000000"
     borderopacity="0.25"
     inkscape:showpageshadow="2"
     inkscape:pageopacity="0.0"
     inkscape:pagecheckerboard="0"
     inkscape:deskcolor="#d1d1d1"
     inkscape:document-units="pt"
     showgrid="false"
     inkscape:zoom="6.9001144"
     inkscape:cx="37.897923"
     inkscape:cy="40.289187"
     inkscape:window-width="1792"
     inkscape:window-height="1056"
     inkscape:window-x="0"
     inkscape:window-y="0"
     inkscape:window-maximized="1"
     inkscape:current-layer="svg8" /><defs
     id="defs2" /><rect
     id="shape0"
     fill="#272727"
     fill-rule="evenodd"
     stroke="#272727"
     stroke-width="5.67139"
     stroke-linecap="square"
     stroke-linejoin="bevel"
     width="68.05661"
     height="68.05661"
     rx="0"
     ry="0"
     x="2.8356988"
     y="2.8356988"
     style="fill:#c6002b;fill-opacity:1;stroke:#c6002b;stroke-width:5.671;stroke-linejoin:miter;stroke-dasharray:none;stroke-opacity:1;stroke-linecap:square" /><path
     d="m 56.466115,31.144763 c 0,3.822543 -2.063104,7.587624 -6.134588,11.196739 -0.943066,0.835243 -2.196252,-0.579399 -1.253185,-1.414642 3.64737,-3.234247 5.499786,-6.525958 5.499786,-9.782097 v -0.04378 c 0,-2.643218 -1.658145,-5.754335 -3.775972,-7.081418 -1.068947,-0.669469 -0.06476,-2.272911 1.004189,-1.603442 2.654126,1.669113 4.65977,5.401359 4.65977,8.68486 z m -12.260966,7.973436 c -1.106011,0.643099 -2.048526,-1.040589 -0.922104,-1.647224 2.186234,-1.22584 3.655579,-3.606378 3.663788,-5.929455 -0.002,-2.132062 -1.186586,-4.087024 -3.075503,-5.075746 -1.114853,-0.585463 -0.236518,-2.257312 0.878325,-1.671849 2.50518,1.311909 4.077871,3.903251 4.085164,6.731178 v 0.02992 c -0.01095,2.982513 -1.868833,6.017016 -4.62967,7.562997 z m -7.584781,-2.777294 c -5.468359,-4.14e-4 -5.465623,-8.200957 0.0027,-8.200545 5.465535,0.0033 5.462799,8.20378 -0.0027,8.200545 z m -6.301496,2.413372 c -0.254249,0.456125 -0.830476,0.619191 -1.28602,0.363922 -2.760837,-1.545982 -4.618726,-4.580484 -4.629671,-7.562997 v -0.02737 c 0.0062,-2.828911 1.579117,-5.421545 4.085165,-6.733914 1.07617,-0.469522 1.875549,1.052059 0.878325,1.671849 -1.888918,0.988722 -3.073475,2.943685 -3.075504,5.075747 0.0084,2.323077 1.477556,4.703614 3.666525,5.926719 0.455116,0.255201 0.616891,0.831207 0.36118,1.286037 z m -6.077127,3.505138 c -0.344799,0.393946 -0.944807,0.430831 -1.335271,0.08209 -4.066012,-3.609114 -6.134588,-7.374196 -6.134588,-11.196738 v -0.04378 c 0,-3.283501 2.002908,-7.015747 4.659769,-8.684859 1.052621,-0.60155 2.004903,0.919008 1.004189,1.603441 -2.117827,1.327083 -3.775971,4.4382 -3.775971,7.081418 v 0.04378 c 0,3.256138 1.852415,6.547849 5.499786,9.782097 0.390658,0.345278 0.42741,0.941919 0.08209,1.332554 z M 48.013956,18.112 c -4.725439,0 -8.947413,2.503669 -11.393588,6.162037 C 34.174194,20.615669 29.949483,18.112 25.224046,18.112 17.693267,18.1105 11.587989,24.215854 11.5895,31.746739 c 0,4.777493 3.026251,8.222433 6.186576,11.410166 l 12.362206,11.689264 c 0.647632,0.612858 1.714134,0.152864 1.712868,-0.738789 v -9.106242 c 0,-2.635009 2.134246,-4.769285 4.769218,-4.774757 2.633783,0.0044 4.766486,2.140933 4.766482,4.774757 v 9.106242 c 0,0.892019 1.067122,1.348973 1.712869,0.738789 L 55.461925,43.156905 C 58.62225,39.969172 61.6485,36.524232 61.6485,31.746739 61.65,24.215854 55.544733,18.110489 48.013956,18.112"
     id="path20497"
     style="display:inline;stroke-width:2.73623;stroke:none;stroke-opacity:1;fill:#ffffff;fill-opacity:1"
     sodipodi:nodetypes="sccssccsscccccccccccccccccccccccssccsscccccccccscsscccc" /></svg>
