<?xml version="1.0" encoding="UTF-8" standalone="no"?>
<!-- Created using Krita: https://krita.org -->

<svg
   width="73.728pt"
   height="73.728pt"
   viewBox="0 0 73.728 73.728"
   version="1.1"
   id="svg8"
   sodipodi:docname="rumble.svg"
   inkscape:version="1.2.2 (b0a8486541, 2022-12-01)"
   xml:space="preserve"
   xmlns:inkscape="http://www.inkscape.org/namespaces/inkscape"
   xmlns:sodipodi="http://sodipodi.sourceforge.net/DTD/sodipodi-0.dtd"
   xmlns="http://www.w3.org/2000/svg"
   xmlns:svg="http://www.w3.org/2000/svg"><sodipodi:namedview
     id="namedview10"
     pagecolor="#ffffff"
     bordercolor="#000000"
     borderopacity="0.25"
     inkscape:showpageshadow="2"
     inkscape:pageopacity="0.0"
     inkscape:pagecheckerboard="0"
     inkscape:deskcolor="#d1d1d1"
     inkscape:document-units="pt"
     showgrid="false"
     inkscape:zoom="8.9314782"
     inkscape:cx="43.609802"
     inkscape:cy="47.024691"
     inkscape:window-width="1792"
     inkscape:window-height="1056"
     inkscape:window-x="0"
     inkscape:window-y="0"
     inkscape:window-maximized="1"
     inkscape:current-layer="svg8" /><defs
     id="defs2" /><rect
     id="shape0"
     fill="#272727"
     fill-rule="evenodd"
     stroke="#272727"
     stroke-width="5.67139"
     stroke-linecap="square"
     stroke-linejoin="bevel"
     width="68.05661"
     height="68.05661"
     rx="0"
     ry="0"
     x="2.8356988"
     y="2.8356988"
     style="fill:#c8122a;fill-opacity:1;stroke:#c8122a;stroke-width:5.671;stroke-linejoin:miter;stroke-dasharray:none;stroke-opacity:1;stroke-linecap:square" /><path
     d="m 36.571151,12.603006 a 24.016183,24.016004 0 0 0 -0.694469,0.02401 c -0.646436,0.04204 -1.54304,0.126084 -2.259523,0.220146 -6.584436,0.896597 -12.200221,4.202801 -15.996778,9.126081 a 24.070219,24.07004 0 0 0 -2.441645,3.882587 24.016183,24.016004 0 0 0 -0.346233,0.716478 c -0.184125,0.396265 -0.358242,0.800533 -0.522353,1.206806 a 24.016183,24.016004 0 0 0 -0.576389,1.577049 l -0.09006,0.286192 A 24.016183,24.016004 0 0 0 12.603,36.590985 v 0.07404 A 24.016183,24.016004 0 0 0 36.619188,60.635 24.016183,24.016004 0 0 0 60.513287,39.040611 l 0.0062,-0.04803 a 24.016183,24.016004 0 0 0 0.115945,-2.337557 v -0.09608 a 24.016183,24.016004 0 0 0 -1.539025,-8.369563 c -0.08006,-0.210141 -0.16211,-0.42028 -0.25017,-0.626419 A 24.016183,24.016004 0 0 0 58.393855,26.548299 C 55.417849,20.244098 49.790057,15.360844 42.987474,13.527623 41.466448,13.111344 39.028807,12.747101 37.357681,12.63903 A 24.016183,24.016004 0 0 0 36.667215,12.603 Z m 4.645128,5.763841 c 0.332224,0.002 0.754509,0.11208 1.350911,0.318213 3.566402,1.222813 7.551088,4.316876 9.718549,7.53302 1.505014,2.23749 2.675803,4.859236 2.675803,5.977982 0,0.716477 -0.700473,1.362908 -1.450979,1.362908 -0.700471,0 -1.416953,-0.610407 -1.609084,-1.360906 -0.260175,-1.050701 -1.661119,-3.70647 -2.691813,-5.07138 -1.835237,-2.411607 -4.667145,-4.527018 -7.445017,-5.557704 -1.959321,-0.734489 -2.46566,-1.59106 -1.557049,-2.673781 0.304205,-0.364243 0.580392,-0.534356 1.008679,-0.530353 z m -7.775238,2.801868 c 0.520351,0.002 0.990667,0.112068 1.400943,0.330219 2.621767,1.328886 2.481674,5.139424 -0.244164,6.188124 -3.374272,1.27485 -5.069415,2.639758 -6.172159,4.877249 -2.307554,4.68312 -0.420283,10.206803 4.248863,12.444292 3.426308,1.643095 7.340947,1.066714 10.066783,-1.450965 1.240836,-1.152769 1.923296,-2.149434 2.53571,-3.758506 0.856575,-2.253501 1.835236,-3.09206 3.582413,-3.09206 2.239508,0 3.776545,1.887258 3.322238,4.054701 -0.926624,4.262841 -4.509037,8.545696 -8.84596,10.557036 -2.393612,1.100734 -3.704497,1.38092 -6.728534,1.38092 -2.972002,0 -4.264873,-0.262174 -6.572428,-1.310872 -6.29224,-2.849901 -10.156844,-9.666443 -9.352302,-16.430951 a 16.256954,16.256833 0 0 1 11.029432,-13.47698 c 0.630425,-0.21014 1.206813,-0.31421 1.729165,-0.312207 z m 6.93067,1.92128 c 0.434293,0.008 0.998673,0.210139 1.829233,0.612408 3.374272,1.60707 6.170156,4.561039 7.67317,8.075381 0.560378,1.344897 0.280188,2.219479 -0.820553,2.56771 -0.840567,0.246164 -1.400944,-0.208138 -2.133437,-1.729151 -1.362919,-2.883922 -3.302226,-4.877252 -6.030064,-6.224148 -1.591071,-0.768513 -1.783201,-0.942629 -1.941308,-1.69513 -0.07005,-0.400267 0,-0.628419 0.368248,-1.064709 0.314211,-0.368246 0.620419,-0.552369 1.054711,-0.542361 z m -0.796537,4.889257 c 0.460311,-0.002 0.992669,0.216144 1.681133,0.668445 1.923295,1.25884 4.090757,3.968646 4.090757,5.103401 0,0.578385 -0.560378,1.312876 -1.118754,1.450968 C 43.475803,35.396195 42.935438,35.02795 42.146907,33.787122 41.29233,32.47625 40.29566,31.479586 39.264966,30.955234 38.372363,30.500933 38.110187,30.150699 38.110187,29.41621 a 1.1607821,1.1607734 0 0 1 0.49033,-1.030688 1.4549803,1.4549695 0 0 1 0.974657,-0.40627 z"
     id="path16125"
     style="stroke-width:2.00133;fill:#ffffff;fill-opacity:1" /></svg>
