<?xml version="1.0" encoding="UTF-8" standalone="no"?>
<!-- Created using Krita: https://krita.org -->

<svg
   width="73.728pt"
   height="73.728pt"
   viewBox="0 0 73.728 73.728"
   version="1.1"
   id="svg8"
   sodipodi:docname="rumble.svg"
   inkscape:version="1.2.2 (b0a8486541, 2022-12-01)"
   xml:space="preserve"
   xmlns:inkscape="http://www.inkscape.org/namespaces/inkscape"
   xmlns:sodipodi="http://sodipodi.sourceforge.net/DTD/sodipodi-0.dtd"
   xmlns="http://www.w3.org/2000/svg"
   xmlns:svg="http://www.w3.org/2000/svg"><sodipodi:namedview
     id="namedview10"
     pagecolor="#ffffff"
     bordercolor="#000000"
     borderopacity="0.25"
     inkscape:showpageshadow="2"
     inkscape:pageopacity="0.0"
     inkscape:pagecheckerboard="0"
     inkscape:deskcolor="#d1d1d1"
     inkscape:document-units="pt"
     showgrid="false"
     inkscape:zoom="8.9314782"
     inkscape:cx="43.609802"
     inkscape:cy="47.024691"
     inkscape:window-width="1792"
     inkscape:window-height="1056"
     inkscape:window-x="0"
     inkscape:window-y="0"
     inkscape:window-maximized="1"
     inkscape:current-layer="svg8" /><defs
     id="defs2" /><rect
     id="shape0"
     fill="#272727"
     fill-rule="evenodd"
     stroke="#272727"
     stroke-width="5.67139"
     stroke-linecap="square"
     stroke-linejoin="bevel"
     width="68.05661"
     height="68.05661"
     rx="0"
     ry="0"
     x="2.8356988"
     y="2.8356988"
     style="fill:#ff5500;fill-opacity:1;stroke:#ff5500;stroke-width:5.671;stroke-linejoin:miter;stroke-dasharray:none;stroke-opacity:1;stroke-linecap:square" /><path
     d="m 63.793276,41.522193 c -0.117767,4.067469 -3.650784,7.176952 -7.700166,7.176952 H 37.567415 A 1.5400332,1.5400211 0 0 1 36.038706,47.15233 V 27.247556 a 1.6917719,1.6917585 0 0 1 1.023669,-1.639669 c 0,0 1.698566,-1.161811 5.283672,-1.161811 a 12.148146,12.14805 0 0 1 6.257519,1.709877 12.304414,12.304317 0 0 1 5.82042,8.017169 c 0.638661,-0.181179 1.299969,-0.274033 1.965808,-0.271768 2.002042,0 3.918025,0.810775 5.315379,2.246619 1.397353,1.435843 2.146987,3.374457 2.088103,5.37422 z M 33.721861,28.513544 c 0.559394,6.748916 0.967051,12.902206 0,19.6398 a 0.60016025,0.60015552 0 0 1 -1.20032,0 c -0.894578,-6.671915 -0.498245,-12.949766 0,-19.6398 a 0.60016025,0.60015552 0 0 1 1.20032,0 z m -3.734581,2.325885 c 0.645455,6.021936 0.83796,11.291978 -0.01359,17.336562 a 0.6273371,0.62733215 0 0 1 -1.245614,0 c -0.749634,-5.956259 -0.579778,-11.36898 0,-17.336562 a 0.62960244,0.62959748 0 0 1 1.259204,0 z m -3.766286,-0.582037 c 0.611483,6.173673 0.883253,11.710955 0,17.900481 a 0.602425,0.60242025 0 0 1 -1.20485,0 c -0.860607,-6.092142 -0.582043,-11.79928 0,-17.900481 a 0.602425,0.60242025 0 0 1 1.20485,0 z m -3.730051,1.743847 a 59.128221,59.127754 0 0 1 -0.01811,16.186076 0.61601333,0.61600848 0 0 1 -1.227498,0 63.311223,63.310724 0 0 1 0,-16.186076 0.6228085,0.62280359 0 0 1 1.245617,0 z m -3.782141,4.00632 c 0.953461,4.223734 0.516364,7.926579 -0.06568,12.202403 a 0.5820425,0.58203791 0 0 1 -1.164085,0 c -0.475599,-4.207882 -0.901372,-8.037552 0,-12.204668 a 0.61601333,0.61600848 0 0 1 1.229763,0 z m -3.74817,-0.618274 c 0.878724,4.296206 0.588837,7.944698 -0.02265,12.256757 -0.05888,0.634126 -1.164085,0.640921 -1.222969,0 -0.5526,-4.253176 -0.785869,-8.017169 -0.02265,-12.256757 a 0.64092564,0.64092059 0 0 1 1.268263,0 z m -3.777611,2.063175 c 0.905901,2.871687 0.582042,5.190778 -0.05888,8.089641 a 0.58204232,0.58203773 0 0 1 -1.1640845,0 C 9.4142515,42.684005 9.1583335,40.30603 9.9079666,37.45246 a 0.64092564,0.64092059 0 0 1 1.2750574,0 z"
     id="path13537"
     style="stroke-width:2.26475;fill:#ffffff;fill-opacity:1" /></svg>
