<?xml version="1.0" encoding="UTF-8" standalone="no"?>
<!-- Created using Krita: https://krita.org -->

<svg
   width="73.728pt"
   height="73.728pt"
   viewBox="0 0 73.728 73.728"
   version="1.1"
   id="svg8"
   sodipodi:docname="rumble.svg"
   inkscape:version="1.2.2 (b0a8486541, 2022-12-01)"
   xml:space="preserve"
   xmlns:inkscape="http://www.inkscape.org/namespaces/inkscape"
   xmlns:sodipodi="http://sodipodi.sourceforge.net/DTD/sodipodi-0.dtd"
   xmlns="http://www.w3.org/2000/svg"
   xmlns:svg="http://www.w3.org/2000/svg"><sodipodi:namedview
     id="namedview10"
     pagecolor="#ffffff"
     bordercolor="#000000"
     borderopacity="0.25"
     inkscape:showpageshadow="2"
     inkscape:pageopacity="0.0"
     inkscape:pagecheckerboard="0"
     inkscape:deskcolor="#d1d1d1"
     inkscape:document-units="pt"
     showgrid="false"
     inkscape:zoom="8.9314782"
     inkscape:cx="41.034641"
     inkscape:cy="45.457201"
     inkscape:window-width="1792"
     inkscape:window-height="1056"
     inkscape:window-x="0"
     inkscape:window-y="0"
     inkscape:window-maximized="1"
     inkscape:current-layer="svg8" /><defs
     id="defs2" /><rect
     id="shape0"
     fill="#272727"
     fill-rule="evenodd"
     stroke="#272727"
     stroke-width="5.67139"
     stroke-linecap="square"
     stroke-linejoin="bevel"
     width="68.05661"
     height="68.05661"
     rx="0"
     ry="0"
     x="2.8356988"
     y="2.8356988"
     style="fill:#1db954;fill-opacity:1;stroke:#1db954;stroke-width:5.671;stroke-linejoin:miter;stroke-dasharray:none;stroke-opacity:1;stroke-linecap:square" /><path
     d="m 36.619032,13.2005 c -12.880192,0 -23.418532,10.53834 -23.418532,23.418532 0,12.880191 10.53834,23.41853 23.418532,23.41853 12.880193,0 23.418533,-10.538339 23.418533,-23.41853 0,-12.880192 -10.421247,-23.418532 -23.418533,-23.418532 z m 10.774477,33.839777 c -0.468371,0.700604 -1.288019,0.936741 -1.992527,0.46837 -5.503355,-3.395687 -12.411822,-4.100194 -20.61026,-2.226712 -0.815746,0.238089 -1.520253,-0.349326 -1.754438,-1.051882 -0.234186,-0.8216 0.351278,-1.522205 1.053834,-1.75639 8.899042,-1.992527 16.627158,-1.170927 22.715976,2.576039 0.819649,0.351278 0.93479,1.286067 0.587415,1.990575 z m 2.810224,-6.440097 c -0.587415,0.819649 -1.641249,1.170927 -2.462849,0.585464 -6.321052,-3.864058 -15.922651,-5.034982 -23.299488,-2.693132 -0.93479,0.234186 -1.990576,-0.234185 -2.224761,-1.170926 -0.234185,-0.936739 0.234185,-1.992524 1.170927,-2.22671 8.547764,-2.574087 19.086104,-1.284116 26.345849,3.163451 0.704507,0.35323 1.053834,1.522205 0.470322,2.341853 z m 0.234185,-6.557186 c -7.495882,-4.449521 -20.024797,-4.917892 -27.167449,-2.69118 -1.170927,0.349327 -2.341853,-0.353229 -2.693131,-1.407063 -0.351278,-1.172878 0.351278,-2.341854 1.405112,-2.695083 8.313579,-2.458946 22.01342,-1.990575 30.680229,3.163453 1.051882,0.585464 1.40316,1.990576 0.817697,3.04441 -0.583512,0.8216 -1.990575,1.168975 -3.042458,0.585463 z"
     id="path2242"
     style="stroke-width:1.952;stroke-dasharray:none;fill:#ffffff;fill-opacity:1" /></svg>
