<?xml version="1.0" encoding="UTF-8" standalone="no"?>
<!-- Created using Krita: https://krita.org -->

<svg
   width="73.728pt"
   height="73.728pt"
   viewBox="0 0 73.728 73.728"
   version="1.1"
   id="svg8"
   sodipodi:docname="rumble.svg"
   inkscape:version="1.2.2 (b0a8486541, 2022-12-01)"
   xml:space="preserve"
   xmlns:inkscape="http://www.inkscape.org/namespaces/inkscape"
   xmlns:sodipodi="http://sodipodi.sourceforge.net/DTD/sodipodi-0.dtd"
   xmlns="http://www.w3.org/2000/svg"
   xmlns:svg="http://www.w3.org/2000/svg"><sodipodi:namedview
     id="namedview10"
     pagecolor="#ffffff"
     bordercolor="#000000"
     borderopacity="0.25"
     inkscape:showpageshadow="2"
     inkscape:pageopacity="0.0"
     inkscape:pagecheckerboard="0"
     inkscape:deskcolor="#d1d1d1"
     inkscape:document-units="pt"
     showgrid="false"
     inkscape:zoom="6.9001144"
     inkscape:cx="37.897923"
     inkscape:cy="40.289187"
     inkscape:window-width="1792"
     inkscape:window-height="1056"
     inkscape:window-x="0"
     inkscape:window-y="0"
     inkscape:window-maximized="1"
     inkscape:current-layer="svg8" /><defs
     id="defs2" /><rect
     id="shape0"
     fill="#272727"
     fill-rule="evenodd"
     stroke="#272727"
     stroke-width="5.67139"
     stroke-linecap="square"
     stroke-linejoin="bevel"
     width="68.05661"
     height="68.05661"
     rx="0"
     ry="0"
     x="2.8356988"
     y="2.8356988"
     style="fill:#14d8cc;fill-opacity:1;stroke:#14d8cc;stroke-width:5.671;stroke-linejoin:miter;stroke-dasharray:none;stroke-opacity:1;stroke-linecap:square" /><path
     d="m 27.4871,35.352833 v 1.561272 c 0,0.220935 -0.231455,0.220935 -0.231455,0.220935 h -1.782194 c 0,0 -0.231454,0 -0.231454,0.231454 v 8.479682 c 0,0.231455 -0.220933,0.231455 -0.220933,0.231455 H 23.222037 C 22.999,46.077631 22.999,45.846176 22.999,45.846176 v -8.479682 c 0,0 0,-0.231454 -0.229351,-0.231454 h -1.775881 c -0.220934,0 -0.220934,-0.220935 -0.220934,-0.220935 v -1.561272 c 0,-0.223038 0.220934,-0.223038 0.220934,-0.223038 H 27.4871 v 0.223038 M 60.012665,19.529705 H 37.252343 c -1.430805,0 -1.759048,0.336663 -1.759048,1.716979 v 5.079392 c 0,1.037341 0,1.037341 -1.035231,1.037341 H 13.080153 c -1.422388,-0.0021 -1.710653,0.286163 -1.710653,1.73381 v 11.383394 c 0,3.69066 0,7.381319 0.04839,11.080396 0,1.940017 0.214621,2.146223 2.188291,2.146223 h 18.573114 c 1.397138,0 2.777443,0.02104 4.174584,-0.02104 1.009978,-0.01262 1.407658,-0.425036 1.407658,-1.435023 V 46.86458 c 0,-0.984738 0,-0.984738 0.986834,-0.984738 h 21.451557 c 1.331911,0 1.668572,-0.319828 1.668572,-1.641227 V 21.33506 c 0,-1.472898 -0.345077,-1.80956 -1.857943,-1.80956 z M 35.520648,50.302742 c 0,1.052071 -0.0275,1.052071 -1.104665,1.052071 -6.623788,0 -13.241259,0 -19.873462,0.01683 -0.673321,0 -0.904773,-0.164122 -0.904773,-0.879529 0.03367,-6.649081 0.01683,-13.306576 0,-19.947241 -0.01683,-0.715408 0.180953,-0.938446 0.930022,-0.938446 6.705847,0.02525 13.388549,0.01683 20.094395,0.01683 0.246184,0 0.483949,0.03157 0.841651,0.04839 0,0.378744 0,0.673324 0.02104,0.93003 -0.0065,6.550185 -0.0065,13.134036 -0.0065,19.701055 z M 51.70137,38.006153 c 0,0.214622 -0.218828,0.214622 -0.218828,0.214622 h -5.407603 c -0.223036,0 -0.223036,-0.214622 -0.223036,-0.214622 v -1.514981 c 0,-0.210414 0.220933,-0.210414 0.220933,-0.210414 h 1.298245 c 0,0 0.214622,0 0.214622,-0.214621 v -6.476541 c 0,0 0,-0.212517 -0.214622,-0.212517 h -1.083624 c -0.214621,0 -0.214621,-0.214623 -0.214621,-0.214623 v -1.725395 c 0,-0.223039 0.214621,-0.223039 0.214621,-0.223039 h 4.980464 c 0.214621,0 0.214621,0.223039 0.214621,0.223039 v 1.504459 c 0,0.220936 -0.214621,0.220936 -0.214621,0.220936 h -1.085728 c 0,0 -0.212517,0 -0.212517,0.214623 v 6.468122 c 0,0 0,0.220936 0.210413,0.220936 h 1.300349 c 0.223037,0 0.223037,0.214621 0.223037,0.214621 z"
     id="path24239"
     style="stroke-width:2.10413;fill:#ffffff;fill-opacity:1" /></svg>
